<mxfile host="Electron" modified="2024-04-30T17:35:52.845Z" agent="Mozilla/5.0 (Windows NT 10.0; Win64; x64) AppleWebKit/537.36 (KHTML, like Gecko) draw.io/24.2.5 Chrome/120.0.6099.109 Electron/28.1.0 Safari/537.36" etag="IYjEG8ZPj6w-wZwmqKYG" version="24.2.5" type="device">
  <diagram name="Page-1" id="rxdMIFF4QSZ6s4MxIWWF">
    <mxGraphModel dx="7208" dy="3208" grid="0" gridSize="10" guides="1" tooltips="1" connect="1" arrows="1" fold="1" page="1" pageScale="1" pageWidth="600" pageHeight="500" math="0" shadow="0">
      <root>
        <mxCell id="0" />
        <mxCell id="1" parent="0" />
        <mxCell id="8ZwtLol09-cl8qGko5ZQ-23" style="edgeStyle=orthogonalEdgeStyle;rounded=0;orthogonalLoop=1;jettySize=auto;html=1;entryX=0.5;entryY=0;entryDx=0;entryDy=0;" edge="1" parent="1" source="8ZwtLol09-cl8qGko5ZQ-2" target="8ZwtLol09-cl8qGko5ZQ-10">
          <mxGeometry relative="1" as="geometry" />
        </mxCell>
        <mxCell id="8ZwtLol09-cl8qGko5ZQ-2" value="&lt;font style=&quot;font-size: 20px;&quot;&gt;&lt;font style=&quot;font-size: 20px;&quot;&gt;Time&amp;nbsp;&lt;/font&gt;&lt;font style=&quot;font-size: 20px;&quot;&gt;Dimension&amp;nbsp;&lt;/font&gt;&lt;/font&gt;" style="swimlane;whiteSpace=wrap;html=1;fillColor=#dae8fc;strokeColor=#6c8ebf;swimlaneFillColor=default;" vertex="1" parent="1">
          <mxGeometry x="507" y="52" width="280" height="270" as="geometry" />
        </mxCell>
        <mxCell id="8ZwtLol09-cl8qGko5ZQ-3" value="&lt;div style=&quot;text-align: left; font-size: 20px;&quot;&gt;&lt;font style=&quot;font-size: 20px;&quot;&gt;&lt;font style=&quot;font-size: 20px;&quot; face=&quot;Tahoma&quot;&gt;&lt;br&gt;&lt;span style=&quot;background-color: initial;&quot;&gt;Time (PK)&lt;/span&gt;&lt;br&gt;&lt;span style=&quot;background-color: initial;&quot;&gt;Time Id&lt;/span&gt;&lt;br&gt;&lt;span style=&quot;background-color: initial;&quot;&gt;Hour&lt;/span&gt;&lt;br&gt;&lt;span style=&quot;background-color: initial;&quot;&gt;Minute&lt;/span&gt;&lt;br&gt;&lt;span style=&quot;background-color: initial;&quot;&gt;DaytimeName&lt;/span&gt;&lt;br&gt;&lt;span style=&quot;background-color: initial;&quot;&gt;Shifts&lt;/span&gt;&lt;br&gt;&lt;span style=&quot;background-color: initial;&quot;&gt;DayNight&lt;/span&gt;&lt;/font&gt;&lt;br&gt;&lt;/font&gt;&lt;/div&gt;&lt;font style=&quot;font-size: 20px;&quot;&gt;&lt;font style=&quot;font-size: 20px;&quot;&gt;&lt;div style=&quot;text-align: left;&quot;&gt;&lt;div&gt;&lt;br&gt;&lt;/div&gt;&lt;/div&gt;&lt;/font&gt;&lt;/font&gt;" style="text;html=1;align=center;verticalAlign=middle;resizable=0;points=[];autosize=1;strokeColor=none;fillColor=none;" vertex="1" parent="8ZwtLol09-cl8qGko5ZQ-2">
          <mxGeometry x="65" y="10" width="150" height="240" as="geometry" />
        </mxCell>
        <mxCell id="8ZwtLol09-cl8qGko5ZQ-24" style="edgeStyle=orthogonalEdgeStyle;rounded=0;orthogonalLoop=1;jettySize=auto;html=1;entryX=1;entryY=0.25;entryDx=0;entryDy=0;" edge="1" parent="1" source="8ZwtLol09-cl8qGko5ZQ-4" target="8ZwtLol09-cl8qGko5ZQ-10">
          <mxGeometry relative="1" as="geometry" />
        </mxCell>
        <mxCell id="8ZwtLol09-cl8qGko5ZQ-4" value="&lt;font style=&quot;font-size: 22px;&quot;&gt;Date Dimension&lt;/font&gt;" style="swimlane;whiteSpace=wrap;html=1;fillColor=#dae8fc;strokeColor=#6c8ebf;swimlaneFillColor=default;" vertex="1" parent="1">
          <mxGeometry x="1046" y="345" width="280" height="580" as="geometry" />
        </mxCell>
        <mxCell id="8ZwtLol09-cl8qGko5ZQ-5" value="&lt;div style=&quot;text-align: center; font-size: 18px;&quot;&gt;&lt;span style=&quot;background-color: initial;&quot;&gt;&lt;font face=&quot;Tahoma&quot; style=&quot;font-size: 18px;&quot;&gt;Date Key (PK)&lt;/font&gt;&lt;/span&gt;&lt;/div&gt;&lt;font face=&quot;E_Vse2sqt-GHe94hN0gW&quot; style=&quot;font-size: 18px;&quot;&gt;&lt;span style=&quot;background-color: initial;&quot;&gt;&lt;div style=&quot;text-align: center;&quot;&gt;&lt;span style=&quot;background-color: initial;&quot;&gt;Date&lt;/span&gt;&lt;/div&gt;&lt;/span&gt;&lt;span style=&quot;background-color: initial;&quot;&gt;&lt;div style=&quot;text-align: center;&quot;&gt;&lt;span style=&quot;background-color: initial;&quot;&gt;Day of the Week&lt;/span&gt;&lt;/div&gt;&lt;/span&gt;&lt;span style=&quot;background-color: initial;&quot;&gt;&lt;div style=&quot;text-align: center;&quot;&gt;&lt;span style=&quot;background-color: initial;&quot;&gt;Day of the Month&lt;/span&gt;&lt;/div&gt;&lt;/span&gt;&lt;span style=&quot;background-color: initial;&quot;&gt;&lt;div style=&quot;text-align: center;&quot;&gt;&lt;span style=&quot;background-color: initial;&quot;&gt;Day of the Year&lt;/span&gt;&lt;/div&gt;&lt;/span&gt;&lt;span style=&quot;background-color: initial;&quot;&gt;&lt;div style=&quot;text-align: center;&quot;&gt;&lt;span style=&quot;background-color: initial;&quot;&gt;Week Number&lt;/span&gt;&lt;/div&gt;&lt;/span&gt;&lt;span style=&quot;background-color: initial;&quot;&gt;&lt;div style=&quot;text-align: center;&quot;&gt;&lt;span style=&quot;background-color: initial;&quot;&gt;Month&lt;/span&gt;&lt;/div&gt;&lt;/span&gt;&lt;span style=&quot;background-color: initial;&quot;&gt;&lt;div style=&quot;text-align: center;&quot;&gt;&lt;span style=&quot;background-color: initial;&quot;&gt;Quarter&lt;/span&gt;&lt;/div&gt;&lt;/span&gt;&lt;span style=&quot;background-color: initial;&quot;&gt;&lt;div style=&quot;text-align: center;&quot;&gt;&lt;span style=&quot;background-color: initial;&quot;&gt;Year&lt;/span&gt;&lt;/div&gt;&lt;/span&gt;&lt;span style=&quot;background-color: initial;&quot;&gt;&lt;div style=&quot;text-align: center;&quot;&gt;&lt;span style=&quot;background-color: initial;&quot;&gt;Holiday Indicator&lt;/span&gt;&lt;/div&gt;&lt;/span&gt;&lt;span style=&quot;background-color: initial;&quot;&gt;&lt;div style=&quot;text-align: center;&quot;&gt;&lt;span style=&quot;background-color: initial;&quot;&gt;Weekday/Weekend Indicator&lt;/span&gt;&lt;/div&gt;&lt;/span&gt;&lt;span style=&quot;background-color: initial;&quot;&gt;&lt;div style=&quot;text-align: center;&quot;&gt;&lt;span style=&quot;background-color: initial;&quot;&gt;Season&lt;/span&gt;&lt;/div&gt;&lt;/span&gt;&lt;span style=&quot;background-color: initial;&quot;&gt;&lt;div style=&quot;text-align: center;&quot;&gt;&lt;span style=&quot;background-color: initial;&quot;&gt;Fiscal Period&lt;/span&gt;&lt;/div&gt;&lt;/span&gt;&lt;span style=&quot;background-color: initial;&quot;&gt;&lt;div style=&quot;text-align: center;&quot;&gt;&lt;span style=&quot;background-color: initial;&quot;&gt;Fiscal Year&lt;/span&gt;&lt;/div&gt;&lt;/span&gt;&lt;span style=&quot;background-color: initial;&quot;&gt;&lt;div style=&quot;text-align: center;&quot;&gt;&lt;span style=&quot;background-color: initial;&quot;&gt;Financial Period&lt;/span&gt;&lt;/div&gt;&lt;/span&gt;&lt;span style=&quot;background-color: initial;&quot;&gt;&lt;div style=&quot;text-align: center;&quot;&gt;&lt;span style=&quot;background-color: initial;&quot;&gt;Financial Year&lt;/span&gt;&lt;/div&gt;&lt;/span&gt;&lt;span style=&quot;background-color: initial;&quot;&gt;&lt;div style=&quot;text-align: center;&quot;&gt;&lt;span style=&quot;background-color: initial;&quot;&gt;Quarter Start/End Dates&lt;/span&gt;&lt;/div&gt;&lt;/span&gt;&lt;span style=&quot;background-color: initial;&quot;&gt;&lt;div style=&quot;text-align: center;&quot;&gt;&lt;span style=&quot;background-color: initial;&quot;&gt;Month Start/End Dates&lt;/span&gt;&lt;/div&gt;&lt;/span&gt;&lt;span style=&quot;background-color: initial;&quot;&gt;&lt;div style=&quot;text-align: center;&quot;&gt;&lt;span style=&quot;background-color: initial;&quot;&gt;Week Start/End Dates&lt;/span&gt;&lt;/div&gt;&lt;/span&gt;&lt;span style=&quot;background-color: initial;&quot;&gt;&lt;div style=&quot;text-align: center;&quot;&gt;&lt;span style=&quot;background-color: initial;&quot;&gt;Day Type&lt;/span&gt;&lt;/div&gt;&lt;/span&gt;&lt;span style=&quot;background-color: initial;&quot;&gt;&lt;div style=&quot;text-align: center;&quot;&gt;&lt;span style=&quot;background-color: initial;&quot;&gt;Leap Year Indicator&lt;/span&gt;&lt;/div&gt;&lt;/span&gt;&lt;/font&gt;" style="text;html=1;strokeColor=none;fillColor=none;align=left;verticalAlign=middle;whiteSpace=wrap;rounded=0;" vertex="1" parent="8ZwtLol09-cl8qGko5ZQ-4">
          <mxGeometry x="30" y="120" width="215" height="360" as="geometry" />
        </mxCell>
        <mxCell id="8ZwtLol09-cl8qGko5ZQ-6" value="&lt;font style=&quot;font-size: 20px;&quot;&gt;Aircraft Dimension&amp;nbsp;&lt;/font&gt;" style="swimlane;whiteSpace=wrap;html=1;startSize=23;fontSize=14;swimlaneFillColor=default;fillColor=#dae8fc;strokeColor=#6c8ebf;" vertex="1" parent="1">
          <mxGeometry x="-507" y="890" width="267" height="260" as="geometry" />
        </mxCell>
        <mxCell id="8ZwtLol09-cl8qGko5ZQ-7" value="&lt;div style=&quot;font-size: 18px;&quot;&gt;&lt;div style=&quot;&quot;&gt;&lt;div style=&quot;&quot;&gt;Aircraft Key (SK)&lt;/div&gt;&lt;div style=&quot;&quot;&gt;Aircraft Id&lt;/div&gt;&lt;div style=&quot;&quot;&gt;Aircraft Type&lt;/div&gt;&lt;div style=&quot;&quot;&gt;Manufacturer&lt;/div&gt;&lt;div style=&quot;&quot;&gt;Model&lt;/div&gt;&lt;div style=&quot;&quot;&gt;Capacity&lt;/div&gt;&lt;div style=&quot;&quot;&gt;Year of Manufacture&lt;/div&gt;&lt;div style=&quot;&quot;&gt;Carrying Weight&lt;/div&gt;&lt;div style=&quot;&quot;&gt;Fuel Consumption&lt;/div&gt;&lt;div style=&quot;&quot;&gt;&lt;br style=&quot;&quot;&gt;&lt;/div&gt;&lt;/div&gt;&lt;/div&gt;" style="text;html=1;align=center;verticalAlign=middle;resizable=0;points=[];autosize=1;fontSize=14;" vertex="1" parent="8ZwtLol09-cl8qGko5ZQ-6">
          <mxGeometry x="43.5" y="38" width="180" height="230" as="geometry" />
        </mxCell>
        <mxCell id="8ZwtLol09-cl8qGko5ZQ-8" value="&lt;font face=&quot;Tahoma&quot; style=&quot;font-size: 20px;&quot;&gt;&lt;font style=&quot;font-size: 20px;&quot;&gt;Airport&amp;nbsp;&lt;/font&gt;Dimension&amp;nbsp;&lt;/font&gt;" style="swimlane;whiteSpace=wrap;html=1;fontSize=14;fillColor=#dae8fc;strokeColor=#6c8ebf;swimlaneFillColor=default;" vertex="1" parent="1">
          <mxGeometry x="-394" y="210" width="280" height="369.75" as="geometry" />
        </mxCell>
        <mxCell id="8ZwtLol09-cl8qGko5ZQ-9" value="&lt;div style=&quot;font-size: 18px;&quot;&gt;&lt;div style=&quot;&quot;&gt;&lt;font style=&quot;font-size: 18px;&quot;&gt;Airport Key (SK)&lt;/font&gt;&lt;/div&gt;&lt;div style=&quot;&quot;&gt;&lt;font style=&quot;font-size: 18px;&quot;&gt;Airport Id&lt;/font&gt;&lt;/div&gt;&lt;div style=&quot;&quot;&gt;&lt;font style=&quot;font-size: 18px;&quot;&gt;Airport Name&lt;/font&gt;&lt;/div&gt;&lt;div style=&quot;&quot;&gt;&lt;font style=&quot;font-size: 18px;&quot;&gt;Country&lt;/font&gt;&lt;/div&gt;&lt;div style=&quot;&quot;&gt;&lt;font style=&quot;font-size: 18px;&quot;&gt;City&lt;/font&gt;&lt;/div&gt;&lt;div style=&quot;&quot;&gt;&lt;font style=&quot;font-size: 18px;&quot;&gt;Latitude&lt;/font&gt;&lt;/div&gt;&lt;div style=&quot;&quot;&gt;&lt;font style=&quot;font-size: 18px;&quot;&gt;Longitude&lt;/font&gt;&lt;/div&gt;&lt;div style=&quot;&quot;&gt;&lt;font style=&quot;font-size: 18px;&quot;&gt;Region&lt;/font&gt;&lt;/div&gt;&lt;div style=&quot;&quot;&gt;&lt;div style=&quot;&quot;&gt;&lt;font style=&quot;font-size: 18px;&quot;&gt;Number of runways&lt;/font&gt;&lt;/div&gt;&lt;div style=&quot;&quot;&gt;&lt;span style=&quot;&quot;&gt;&lt;font style=&quot;font-size: 18px;&quot;&gt;Terminal count&lt;/font&gt;&lt;/span&gt;&lt;/div&gt;&lt;div style=&quot;&quot;&gt;&lt;span style=&quot;&quot;&gt;&lt;font style=&quot;font-size: 18px;&quot;&gt;Number of gates&lt;/font&gt;&lt;/span&gt;&lt;/div&gt;&lt;div style=&quot;&quot;&gt;&lt;span style=&quot;&quot;&gt;&lt;font style=&quot;font-size: 18px;&quot;&gt;ATC capacity&lt;/font&gt;&lt;/span&gt;&lt;/div&gt;&lt;div style=&quot;&quot;&gt;&lt;span style=&quot;&quot;&gt;&lt;font style=&quot;font-size: 18px;&quot;&gt;Aircraft Parking Stands&lt;/font&gt;&lt;/span&gt;&lt;/div&gt;&lt;div style=&quot;&quot;&gt;&lt;span style=&quot;&quot;&gt;&lt;font style=&quot;font-size: 18px;&quot;&gt;Guest Capacity&lt;/font&gt;&lt;/span&gt;&lt;/div&gt;&lt;/div&gt;&lt;div style=&quot;&quot;&gt;&lt;br style=&quot;&quot;&gt;&lt;/div&gt;&lt;/div&gt;" style="text;html=1;align=center;verticalAlign=middle;resizable=0;points=[];autosize=1;strokeColor=none;fillColor=none;fontSize=14;" vertex="1" parent="8ZwtLol09-cl8qGko5ZQ-8">
          <mxGeometry x="35" y="29.75" width="210" height="340" as="geometry" />
        </mxCell>
        <mxCell id="8ZwtLol09-cl8qGko5ZQ-10" value="Flight Revenue Fact" style="swimlane;whiteSpace=wrap;fontSize=20;fillColor=#ffe6cc;strokeColor=#d79b00;swimlaneFillColor=default;html=1;fontFamily=Tahoma;" vertex="1" parent="1">
          <mxGeometry x="240" y="680" width="400" height="440" as="geometry" />
        </mxCell>
        <mxCell id="8ZwtLol09-cl8qGko5ZQ-11" value="&lt;div style=&quot;text-align: left; font-size: 20px;&quot;&gt;&lt;font face=&quot;Tahoma&quot; style=&quot;font-size: 20px;&quot;&gt;&lt;b&gt;Scheduled Departure Date Key (FK)&lt;br style=&quot;&quot;&gt; Scheduled Departure&amp;nbsp;&lt;span style=&quot;background-color: initial;&quot;&gt;Time Key (FK)&lt;/span&gt;&lt;/b&gt;&lt;/font&gt;&lt;/div&gt;&lt;div style=&quot;text-align: left; font-size: 20px;&quot;&gt;&lt;font face=&quot;ZpFloQ41apuhYkAUxMbN&quot; style=&quot;font-size: 20px;&quot;&gt;&lt;b&gt;Origin Airport Key (FK)&lt;br style=&quot;&quot;&gt;Destination&amp;nbsp;&lt;span style=&quot;background-color: initial;&quot;&gt;Airport Key (FK)&lt;/span&gt;&lt;/b&gt;&lt;/font&gt;&lt;/div&gt;&lt;div style=&quot;text-align: left; font-size: 20px;&quot;&gt;&lt;span style=&quot;background-color: initial;&quot;&gt;&lt;font face=&quot;ZpFloQ41apuhYkAUxMbN&quot; style=&quot;font-size: 20px;&quot;&gt;&lt;b&gt;Flight Milestone Key (FK)&lt;/b&gt;&lt;/font&gt;&lt;/span&gt;&lt;/div&gt;&lt;div style=&quot;text-align: left; font-size: 20px;&quot;&gt;&lt;font face=&quot;ZpFloQ41apuhYkAUxMbN&quot; style=&quot;font-size: 20px;&quot;&gt;&lt;b&gt; Aircraft Key (FK)&lt;/b&gt;&lt;/font&gt;&lt;/div&gt;&lt;div style=&quot;text-align: left; font-size: 20px;&quot;&gt;&lt;font face=&quot;ZpFloQ41apuhYkAUxMbN&quot; style=&quot;font-size: 20px;&quot;&gt;&lt;b&gt; Flight Number (DD)&amp;nbsp;&lt;/b&gt;&lt;/font&gt;&lt;/div&gt;&lt;div style=&quot;text-align: left; font-size: 20px;&quot;&gt;&lt;font face=&quot;ZpFloQ41apuhYkAUxMbN&quot; style=&quot;font-size: 20px;&quot;&gt;&lt;b&gt;&lt;br&gt;&lt;/b&gt;&lt;/font&gt;&lt;/div&gt;&lt;div style=&quot;text-align: left; font-size: 20px;&quot;&gt;&lt;font face=&quot;ZpFloQ41apuhYkAUxMbN&quot; style=&quot;font-size: 20px;&quot;&gt;&lt;b&gt;Unearned Revenue&lt;/b&gt;&lt;/font&gt;&lt;/div&gt;&lt;div style=&quot;text-align: left; font-size: 20px;&quot;&gt;&lt;div style=&quot;border-color: var(--border-color);&quot;&gt;&lt;font face=&quot;ZpFloQ41apuhYkAUxMbN&quot; style=&quot;font-size: 20px;&quot;&gt;&lt;b&gt;Remaining Economy Seats&lt;/b&gt;&lt;/font&gt;&lt;/div&gt;&lt;div style=&quot;border-color: var(--border-color);&quot;&gt;&lt;font face=&quot;ZpFloQ41apuhYkAUxMbN&quot; style=&quot;font-size: 20px;&quot;&gt;&lt;b&gt;Remaining Prem Economy Seats&lt;/b&gt;&lt;/font&gt;&lt;/div&gt;&lt;div style=&quot;&quot;&gt;&lt;font face=&quot;ZpFloQ41apuhYkAUxMbN&quot; style=&quot;font-size: 20px;&quot;&gt;&lt;b&gt;Remaining Business Seats&lt;br style=&quot;&quot;&gt;&lt;/b&gt;&lt;/font&gt;&lt;/div&gt;&lt;/div&gt;&lt;div style=&quot;text-align: left; font-size: 20px;&quot;&gt;&lt;font face=&quot;ZpFloQ41apuhYkAUxMbN&quot; style=&quot;font-size: 20px;&quot;&gt;&lt;b&gt;Remaining First Class Seats&lt;/b&gt;&lt;/font&gt;&lt;/div&gt;&lt;div style=&quot;text-align: left; font-size: 20px;&quot;&gt;&lt;font face=&quot;ZpFloQ41apuhYkAUxMbN&quot; style=&quot;font-size: 20px;&quot;&gt;&lt;b&gt;Cancelled Reservations&lt;/b&gt;&lt;/font&gt;&lt;/div&gt;" style="text;html=1;align=center;verticalAlign=middle;resizable=0;points=[];autosize=1;strokeColor=none;fillColor=none;fontSize=14;" vertex="1" parent="8ZwtLol09-cl8qGko5ZQ-10">
          <mxGeometry x="10" y="50" width="380" height="360" as="geometry" />
        </mxCell>
        <mxCell id="8ZwtLol09-cl8qGko5ZQ-12" value="" style="line;strokeWidth=1;html=1;fontSize=2;" vertex="1" parent="8ZwtLol09-cl8qGko5ZQ-10">
          <mxGeometry x="34" y="240" width="332" height="8" as="geometry" />
        </mxCell>
        <mxCell id="8ZwtLol09-cl8qGko5ZQ-13" value="&lt;font face=&quot;Tahoma&quot; style=&quot;font-size: 18px;&quot;&gt;City-pair Route Dimension&lt;/font&gt;" style="swimlane;whiteSpace=wrap;html=1;fontSize=14;fillColor=#dae8fc;strokeColor=#6c8ebf;swimlaneFillColor=default;" vertex="1" parent="1">
          <mxGeometry x="-800" y="560" width="280" height="230" as="geometry" />
        </mxCell>
        <mxCell id="8ZwtLol09-cl8qGko5ZQ-14" value="&lt;div style=&quot;font-size: 18px;&quot;&gt;&lt;font face=&quot;Tahoma&quot; style=&quot;font-size: 18px;&quot;&gt;City-Pair Route Key (SK)&lt;/font&gt;&lt;/div&gt;&lt;div style=&quot;font-size: 18px;&quot;&gt;&lt;font face=&quot;LK2kZPiWcbJKduJd0ah_&quot; style=&quot;font-size: 18px;&quot;&gt;Directional Route Name&lt;/font&gt;&lt;/div&gt;&lt;div style=&quot;font-size: 18px;&quot;&gt;&lt;font face=&quot;LK2kZPiWcbJKduJd0ah_&quot; style=&quot;font-size: 18px;&quot;&gt;Non-Directional Route Name&lt;/font&gt;&lt;/div&gt;&lt;div style=&quot;font-size: 18px;&quot;&gt;&lt;font face=&quot;LK2kZPiWcbJKduJd0ah_&quot; style=&quot;font-size: 18px;&quot;&gt;Route Distance in Miles&amp;nbsp;&lt;/font&gt;&lt;/div&gt;&lt;div style=&quot;font-size: 18px;&quot;&gt;&lt;font face=&quot;LK2kZPiWcbJKduJd0ah_&quot; style=&quot;font-size: 18px;&quot;&gt;Route Distance Band&amp;nbsp;&lt;/font&gt;&lt;/div&gt;&lt;div style=&quot;font-size: 18px;&quot;&gt;&lt;font face=&quot;LK2kZPiWcbJKduJd0ah_&quot; style=&quot;font-size: 18px;&quot;&gt;Dom-Intl Indicator&amp;nbsp;&lt;/font&gt;&lt;/div&gt;&lt;div style=&quot;font-size: 18px;&quot;&gt;&lt;font face=&quot;LK2kZPiWcbJKduJd0ah_&quot; style=&quot;font-size: 18px;&quot;&gt;Transocean Indicator&lt;/font&gt;&lt;/div&gt;" style="text;html=1;strokeColor=none;fillColor=none;align=center;verticalAlign=middle;whiteSpace=wrap;rounded=0;fontSize=14;" vertex="1" parent="8ZwtLol09-cl8qGko5ZQ-13">
          <mxGeometry y="55" width="291" height="120" as="geometry" />
        </mxCell>
        <mxCell id="8ZwtLol09-cl8qGko5ZQ-15" style="edgeStyle=orthogonalEdgeStyle;rounded=0;orthogonalLoop=1;jettySize=auto;html=1;" edge="1" parent="1" source="8ZwtLol09-cl8qGko5ZQ-16">
          <mxGeometry relative="1" as="geometry">
            <mxPoint x="640" y="920" as="targetPoint" />
            <Array as="points">
              <mxPoint x="940" y="970" />
              <mxPoint x="690" y="970" />
              <mxPoint x="690" y="920" />
            </Array>
          </mxGeometry>
        </mxCell>
        <mxCell id="8ZwtLol09-cl8qGko5ZQ-16" value="&lt;font style=&quot;font-size: 18px;&quot;&gt;Flight Milestone Dimension&lt;/font&gt;" style="swimlane;whiteSpace=wrap;html=1;fontSize=14;fillColor=#dae8fc;strokeColor=#6c8ebf;swimlaneFillColor=default;" vertex="1" parent="1">
          <mxGeometry x="1018" y="1017" width="280" height="170" as="geometry" />
        </mxCell>
        <mxCell id="8ZwtLol09-cl8qGko5ZQ-17" value="&lt;div style=&quot;font-size: 17px;&quot;&gt;&lt;font face=&quot;Tahoma&quot; style=&quot;font-size: 17px;&quot;&gt;Flight Milestone Key (SK)&lt;/font&gt;&lt;/div&gt;&lt;div style=&quot;font-size: 17px;&quot;&gt;&lt;font face=&quot;SnO-u0PHlM5LmDvHJSqd&quot; style=&quot;font-size: 17px;&quot;&gt;Days Before Flight&lt;/font&gt;&lt;/div&gt;&lt;div style=&quot;font-size: 17px;&quot;&gt;&lt;font face=&quot;SnO-u0PHlM5LmDvHJSqd&quot; style=&quot;font-size: 17px;&quot;&gt;Marketed Indicator&lt;/font&gt;&lt;/div&gt;&lt;div style=&quot;font-size: 17px;&quot;&gt;&lt;font face=&quot;SnO-u0PHlM5LmDvHJSqd&quot; style=&quot;font-size: 17px;&quot;&gt;Maintained Indicator&lt;/font&gt;&lt;/div&gt;&lt;div style=&quot;font-size: 17px;&quot;&gt;&lt;font face=&quot;SnO-u0PHlM5LmDvHJSqd&quot; style=&quot;font-size: 17px;&quot;&gt;Crew Scheduled Indicator&lt;/font&gt;&lt;/div&gt;&lt;div style=&quot;font-size: 17px;&quot;&gt;&lt;font face=&quot;SnO-u0PHlM5LmDvHJSqd&quot; style=&quot;font-size: 17px;&quot;&gt;Fully Booked Indicator&lt;/font&gt;&lt;/div&gt;&lt;div style=&quot;font-size: 17px;&quot;&gt;&lt;br&gt;&lt;/div&gt;" style="text;html=1;strokeColor=none;fillColor=none;align=center;verticalAlign=middle;whiteSpace=wrap;rounded=0;fontSize=14;" vertex="1" parent="8ZwtLol09-cl8qGko5ZQ-16">
          <mxGeometry x="23" y="45" width="204" height="125" as="geometry" />
        </mxCell>
        <mxCell id="8ZwtLol09-cl8qGko5ZQ-19" style="edgeStyle=orthogonalEdgeStyle;rounded=0;orthogonalLoop=1;jettySize=auto;html=1;entryX=0.001;entryY=0.051;entryDx=0;entryDy=0;entryPerimeter=0;" edge="1" parent="1" source="8ZwtLol09-cl8qGko5ZQ-8" target="8ZwtLol09-cl8qGko5ZQ-10">
          <mxGeometry relative="1" as="geometry">
            <Array as="points">
              <mxPoint x="55" y="-90" />
              <mxPoint x="55" y="702" />
            </Array>
          </mxGeometry>
        </mxCell>
        <mxCell id="8ZwtLol09-cl8qGko5ZQ-20" style="edgeStyle=orthogonalEdgeStyle;rounded=0;orthogonalLoop=1;jettySize=auto;html=1;entryX=-0.003;entryY=0.399;entryDx=0;entryDy=0;entryPerimeter=0;" edge="1" parent="1" source="8ZwtLol09-cl8qGko5ZQ-13" target="8ZwtLol09-cl8qGko5ZQ-11">
          <mxGeometry relative="1" as="geometry" />
        </mxCell>
        <mxCell id="8ZwtLol09-cl8qGko5ZQ-21" style="edgeStyle=orthogonalEdgeStyle;rounded=0;orthogonalLoop=1;jettySize=auto;html=1;entryX=-0.024;entryY=0.701;entryDx=0;entryDy=0;entryPerimeter=0;" edge="1" parent="1" source="8ZwtLol09-cl8qGko5ZQ-6" target="8ZwtLol09-cl8qGko5ZQ-11">
          <mxGeometry relative="1" as="geometry" />
        </mxCell>
      </root>
    </mxGraphModel>
  </diagram>
</mxfile>
